<svg xmlns="http://www.w3.org/2000/svg" viewBox="0 0 519.18 361.52"><defs><style>.cls-1{fill:#f4c42a;stroke:#edd285;stroke-width:5px;}.cls-2{font-size:42.32px;}.cls-2,.cls-3,.cls-4,.cls-5{fill:#f9fcf6;stroke:#f4c42a;stroke-width:0.25px;font-family:Sylfaen, Sylfaen;}.cls-3{font-size:166.13px;}.cls-4{font-size:139.78px;}.cls-5{font-size:14.39px;letter-spacing:-0.03em;}</style></defs><title>TheMieleGroupLogoYellow_1</title><g id="Layer_2" data-name="Layer 2"><g id="Layer_1-2" data-name="Layer 1"><polygon class="cls-1" points="170.78 56.22 152.52 79.1 123.57 74.78 112.88 47.59 131.13 24.71 160.08 29.02 170.78 56.22"/><polygon class="cls-1" points="116.1 126.71 97.84 149.59 68.9 145.28 58.2 118.08 76.45 95.2 105.4 99.52 116.1 126.71"/><polygon class="cls-1" points="164.14 107.82 145.89 130.7 116.94 126.38 106.24 99.19 124.5 76.31 153.45 80.62 164.14 107.82"/><polygon class="cls-1" points="157.83 161.05 139.57 183.93 110.62 179.62 99.93 152.42 118.18 129.54 147.13 133.86 157.83 161.05"/><polygon class="cls-1" points="204.89 138.62 186.64 161.5 157.69 157.18 146.99 129.98 165.25 107.1 194.2 111.42 204.89 138.62"/><polygon class="cls-1" points="109.93 175.96 91.67 198.84 62.72 194.53 52.03 167.33 70.28 144.45 99.23 148.77 109.93 175.96"/><polygon class="cls-1" points="196.45 189.95 178.19 212.83 149.24 208.52 138.55 181.32 156.8 158.44 185.75 162.76 196.45 189.95"/><polygon class="cls-1" points="210.71 89.5 192.46 112.38 163.51 108.06 152.81 80.87 171.07 57.99 200.02 62.3 210.71 89.5"/><polygon class="cls-1" points="123.86 74.67 105.6 97.55 76.65 93.24 65.96 66.04 84.21 43.16 113.16 47.48 123.86 74.67"/><polygon class="cls-1" points="101.08 227.46 82.82 250.34 53.87 246.03 43.18 218.83 61.43 195.95 90.38 200.27 101.08 227.46"/><polygon class="cls-1" points="68.77 145.32 50.52 168.21 21.57 163.89 10.87 136.69 29.13 113.81 58.08 118.13 68.77 145.32"/><polygon class="cls-1" points="254.25 119.2 236 142.08 207.04 137.77 196.35 110.57 214.6 87.69 243.55 92.01 254.25 119.2"/><polygon class="cls-1" points="243.02 171.64 224.76 194.52 195.81 190.2 185.12 163.01 203.37 140.13 232.32 144.44 243.02 171.64"/><polygon class="cls-1" points="77.16 93.04 58.9 115.92 29.95 111.61 19.26 84.41 37.51 61.53 66.46 65.85 77.16 93.04"/><polygon class="cls-1" points="149.91 212.69 131.66 235.57 102.71 231.25 92.01 204.06 110.27 181.18 139.22 185.49 149.91 212.69"/><polygon class="cls-1" points="60.76 195.3 42.5 218.18 13.55 213.87 2.85 186.67 21.11 163.79 50.06 168.11 60.76 195.3"/><text></text><text class="cls-2" transform="translate(240.31 81.7) scale(1.11 1)">The</text><text class="cls-3" transform="translate(73.84 208.76) scale(1.12 1)">Miele</text><text class="cls-4" transform="translate(73.84 320.17) scale(1.12 1)">Group</text><text class="cls-5" transform="translate(448.41 341.09)">LLC</text></g></g></svg>